<?xml version="1.0" encoding="UTF-8"?><svg  xmlns="http://www.w3.org/2000/svg" viewBox="0 0 63.84 63.63"><defs><style>.cls-1{fill:#fff;stroke-width:0px;}</style></defs><g id="Layer_3"><path class="cls-1" d="M37.13,40.84c-1.92-.96-3.98-1.15-6.07-1.31-3.23-.25-5.9-2.49-6.72-5.6-.26-.97-.28-2.01-.36-3.02-.48-6.26-5.68-11.09-11.95-11.11-5.05-.01-9.61,3.2-11.32,7.95-1.72,4.81-.24,10.17,3.71,13.38,2.26,1.83,4.86,2.64,7.75,2.73,3.38.1,6.19,2.13,7.17,5.23.33,1.06.4,2.21.48,3.32.42,6.36,5.78,11.32,12.16,11.22,5.51-.08,10.31-3.97,11.53-9.33,1.24-5.43-1.41-10.98-6.38-13.46ZM12.01,39.73c-4.38,0-7.92-3.55-7.91-7.92.01-4.39,3.57-7.92,7.94-7.9,4.37.03,7.86,3.53,7.87,7.89.01,4.39-3.51,7.93-7.9,7.93ZM31.79,59.53c-4.37,0-7.9-3.56-7.89-7.95.01-4.39,3.53-7.88,7.94-7.87,4.36.02,7.87,3.54,7.87,7.89.01,4.36-3.56,7.94-7.92,7.93Z"/><path class="cls-1" d="M45.61,16.63c-1.26-1.59-1.47-3.5-1.58-5.46C43.68,5.12,38.81.4,32.61.02c-5.78-.35-11.16,3.87-12.29,9.63-.12.59-.24,1.19-.23,1.79.04,2.89-1,5.24-3.45,7.06,4.44,1.63,7.37,4.58,8.97,8.95,1.67-2.2,3.79-3.39,6.48-3.39s4.8,1.2,6.46,3.39c1.61-4.4,4.56-7.34,8.85-8.91-.63-.66-1.26-1.24-1.79-1.91ZM32.12,19.93c-4.4.02-7.93-3.48-7.96-7.87-.03-4.35,3.55-7.94,7.92-7.95s7.9,3.55,7.9,7.94c-.01,4.37-3.5,7.87-7.86,7.88Z"/><path class="cls-1" d="M63.79,30.48c-.56-6.18-6.39-11.12-12.57-10.65-6.38.49-11.03,5.15-11.32,11.55-.13,2.79-1.06,5.07-3.28,6.79-.04.02-.04.09-.06.17,4.29,1.56,7.23,4.51,8.79,8.78.09-.01.12,0,.13-.02.08-.07.15-.14.22-.22,1.58-1.97,3.63-3,6.17-3.04.65-.01,1.31-.06,1.95-.17,6.44-1.18,10.56-6.64,9.97-13.19ZM51.87,39.73c-4.38,0-7.91-3.53-7.91-7.92.01-4.39,3.56-7.92,7.94-7.9,4.36.03,7.85,3.52,7.88,7.88.02,4.37-3.52,7.93-7.91,7.94Z"/></g></svg>